<?xml version="1.0" standalone="no"?>
<!DOCTYPE svg PUBLIC "-//W3C//DTD SVG 20010904//EN"
 "http://www.w3.org/TR/2001/REC-SVG-20010904/DTD/svg10.dtd">
<svg version="1.0" xmlns="http://www.w3.org/2000/svg"
 width="1024.000000pt" height="1024.000000pt" viewBox="0 0 1024.000000 1024.000000"
 preserveAspectRatio="xMidYMid meet">

<g transform="translate(0.000000,1024.000000) scale(0.100000,-0.100000)"
fill="#000000" stroke="none">
<path d="M4990 9396 c-49 -29 -199 -112 -950 -526 -107 -59 -250 -138 -318
-174 -68 -37 -165 -91 -215 -120 -51 -29 -153 -85 -227 -126 -179 -96 -290
-159 -435 -243 -153 -89 -213 -123 -415 -237 -91 -51 -214 -121 -275 -155 -60
-34 -179 -100 -262 -146 l-153 -84 3 -1720 2 -1720 30 -15 c25 -13 227 -121
430 -230 78 -43 472 -259 555 -305 41 -23 170 -94 285 -157 116 -64 244 -135
285 -158 41 -23 109 -60 150 -82 41 -23 104 -56 140 -76 36 -19 112 -61 170
-92 58 -31 143 -78 189 -103 46 -26 86 -47 88 -47 3 0 17 -8 31 -19 27 -18 81
-48 322 -176 187 -100 461 -257 548 -316 40 -27 79 -49 87 -49 9 0 34 14 58
31 90 65 321 198 737 421 102 55 214 116 250 137 36 21 88 49 116 63 27 15 68
36 90 49 21 12 120 66 219 119 99 54 230 126 290 160 61 35 175 97 255 140 80
43 188 101 240 130 52 29 158 86 235 128 77 41 194 105 260 142 66 37 145 79
175 94 30 15 129 69 220 119 l165 92 3 1720 2 1720 -52 29 c-29 16 -78 43
-108 61 -30 18 -100 57 -155 87 -55 31 -208 116 -340 190 -132 74 -269 151
-305 170 -36 19 -139 77 -230 128 -208 117 -897 499 -1180 655 -118 65 -284
158 -368 207 -84 48 -155 88 -157 88 -2 0 -45 24 -97 53 -51 30 -138 78 -193
107 -55 29 -104 57 -109 61 -16 14 -27 11 -86 -25z m285 -269 c88 -49 205
-114 260 -144 55 -31 174 -97 265 -148 328 -184 492 -275 496 -275 3 0 78 -42
167 -94 89 -51 234 -133 322 -181 88 -48 225 -125 305 -170 80 -45 177 -99
215 -120 158 -86 502 -278 525 -294 14 -9 50 -30 80 -46 30 -15 95 -52 144
-82 49 -29 92 -53 95 -53 3 0 17 -9 31 -20 l25 -19 1 -1620 c1 -892 -2 -1621
-6 -1621 -5 0 -57 -29 -116 -63 -141 -83 -285 -162 -404 -224 -136 -70 -450
-242 -620 -338 -80 -45 -194 -109 -255 -142 -60 -33 -164 -91 -230 -128 -66
-37 -192 -106 -280 -153 -88 -46 -239 -128 -335 -182 -96 -53 -251 -139 -345
-190 -93 -52 -213 -118 -265 -148 -52 -30 -124 -71 -160 -90 -36 -19 -77 -43
-92 -54 -35 -24 -43 -23 -97 11 -25 16 -84 48 -131 73 -47 24 -164 89 -260
142 -96 54 -208 117 -250 139 -141 76 -245 133 -435 239 -104 57 -244 134
-310 170 -66 36 -151 83 -190 104 -100 54 -495 273 -590 326 -44 24 -136 75
-205 113 -69 37 -237 132 -375 210 -137 78 -274 154 -302 169 l-53 26 0 1618
0 1617 88 52 c48 28 177 102 287 163 110 62 247 140 305 173 118 67 413 235
595 337 123 69 151 85 360 198 66 36 149 82 185 102 36 21 166 92 290 160 124
67 254 139 290 160 36 20 90 50 120 66 125 65 567 317 595 339 l30 23 35 -21
c19 -11 107 -61 195 -110z"/>
<path d="M4990 9099 c-30 -18 -93 -53 -140 -79 -47 -25 -132 -73 -190 -106
-58 -34 -202 -114 -320 -179 -118 -65 -289 -160 -380 -211 -149 -83 -266 -147
-615 -336 -60 -33 -114 -63 -120 -68 -10 -7 -163 -94 -365 -205 -113 -63 -190
-106 -370 -210 -74 -42 -162 -92 -195 -110 -33 -19 -109 -63 -169 -99 -60 -36
-113 -66 -118 -66 -4 0 -7 -704 -5 -1564 l2 -1564 65 -32 c36 -17 99 -51 140
-75 165 -94 570 -322 685 -385 22 -12 69 -39 105 -60 36 -20 119 -65 185 -100
66 -34 125 -66 130 -70 6 -4 51 -29 100 -55 50 -26 128 -69 175 -95 47 -26
130 -71 184 -100 129 -68 117 -61 226 -123 92 -53 238 -134 370 -205 65 -35
148 -81 502 -279 l187 -104 123 73 c156 93 288 168 358 203 30 15 100 53 155
85 111 64 316 177 560 310 345 187 503 274 575 315 201 114 642 355 930 510
63 34 166 89 228 124 l112 62 0 1568 0 1567 -42 24 c-24 13 -95 52 -158 88
-146 82 -242 136 -460 257 -96 53 -213 119 -260 145 -47 26 -132 73 -190 105
-58 32 -179 100 -270 150 -91 51 -248 139 -350 195 -102 57 -214 120 -250 140
-36 21 -123 70 -195 110 -71 40 -161 90 -200 112 -38 22 -99 56 -135 75 -129
70 -337 187 -416 234 -108 64 -118 66 -184 28z m108 -157 c39 -27 374 -217
542 -307 80 -43 168 -92 195 -108 28 -17 104 -60 170 -97 66 -36 172 -96 235
-132 182 -104 672 -378 820 -458 132 -72 412 -228 675 -375 72 -40 148 -82
170 -92 22 -10 43 -22 47 -28 12 -16 10 -1135 -2 -1135 -11 0 -82 62 -133 115
-48 50 -187 226 -187 237 0 6 -29 8 -71 6 l-70 -3 -27 50 c-15 28 -43 79 -62
113 -38 71 -31 69 -140 38 -30 -9 -69 -16 -87 -16 -37 0 -47 12 -146 170 -36
58 -96 138 -133 179 -37 41 -125 153 -196 248 -71 95 -134 176 -139 179 -6 3
-47 -13 -92 -35 -45 -23 -98 -44 -119 -48 -35 -5 -38 -3 -85 58 -26 34 -75 96
-108 136 -55 68 -201 276 -208 296 -1 5 -36 -3 -77 -16 -41 -14 -93 -28 -115
-31 l-40 -6 -85 127 c-178 266 -210 310 -285 383 -43 41 -100 101 -127 133
-57 68 -148 201 -148 217 0 27 -24 1 -87 -92 -39 -59 -115 -152 -179 -218 -61
-63 -126 -137 -144 -165 -18 -27 -65 -84 -105 -125 -39 -41 -91 -108 -115
-147 -44 -71 -46 -73 -85 -73 -26 0 -67 13 -114 35 -41 20 -75 34 -76 33 -1
-2 -12 -21 -25 -43 -46 -78 -170 -232 -272 -338 -98 -101 -106 -107 -144 -107
-22 0 -68 11 -102 25 -34 14 -64 25 -67 25 -2 0 -32 -42 -67 -92 -60 -90 -221
-308 -262 -356 -58 -66 -125 -77 -239 -40 -59 19 -69 20 -82 7 -22 -21 -153
-244 -239 -405 -27 -49 -30 -52 -77 -58 -28 -4 -61 -12 -75 -18 -13 -6 -61
-60 -105 -120 -74 -99 -228 -258 -250 -258 -5 0 -8 228 -6 565 l3 566 64 38
c87 51 276 158 435 246 72 39 209 115 305 169 96 54 220 123 275 154 55 31
161 90 235 132 74 42 160 89 190 105 30 16 71 37 90 48 19 11 80 44 135 75 55
30 145 80 200 112 118 67 262 147 400 220 94 50 447 251 525 299 43 26 55 26
88 3z m-53 -454 c-2 -18 -7 -55 -10 -82 -3 -30 -26 -92 -61 -163 -30 -64 -53
-117 -50 -120 8 -8 89 42 150 92 56 45 66 47 66 11 0 -23 -26 -71 -222 -399
-72 -120 -128 -220 -125 -224 4 -3 50 34 102 83 271 253 294 271 280 222 -16
-53 -62 -146 -92 -186 -19 -24 -33 -54 -33 -70 0 -38 27 -127 56 -184 13 -26
24 -51 24 -56 0 -5 -55 -12 -122 -15 -68 -4 -195 -20 -283 -36 -87 -17 -160
-29 -162 -27 -2 1 12 32 31 67 33 63 130 291 196 459 18 47 39 100 47 118 7
17 10 32 5 32 -8 0 -122 -144 -122 -154 0 -3 -20 -37 -44 -75 -24 -37 -85
-144 -134 -237 -147 -276 -127 -249 -240 -309 -55 -30 -144 -83 -197 -119 -54
-37 -100 -65 -102 -62 -9 8 44 93 243 391 45 66 117 186 162 268 113 204 123
219 206 300 40 40 85 95 101 122 55 99 76 126 123 160 26 19 81 77 122 129 41
53 78 96 82 96 4 0 5 -15 3 -32z m404 -470 c15 -18 18 -29 10 -33 -14 -9 -21
-1 -53 57 -33 59 -34 83 -2 37 14 -19 34 -46 45 -61z m48 -71 c6 -4 22 -26 36
-50 13 -23 34 -60 47 -82 l24 -40 -23 20 c-12 11 -39 42 -59 70 -20 27 -39 52
-42 55 -4 3 -9 12 -13 22 -6 16 8 19 30 5z m-1302 -230 l-1 -92 -103 -205
c-104 -205 -202 -370 -242 -406 l-22 -19 6 63 c4 52 14 79 61 160 30 53 61
113 68 132 6 19 20 50 31 68 25 41 17 41 -30 -4 -58 -55 -142 -90 -157 -65 -7
10 65 97 184 226 41 44 104 115 139 158 35 42 64 77 65 77 1 0 1 -42 1 -93z
m1748 -7 c24 -47 83 -152 131 -235 99 -170 126 -230 126 -283 1 -84 33 -80
128 18 94 95 184 172 193 163 3 -5 14 -33 24 -63 17 -53 55 -147 97 -239 26
-58 126 -217 179 -283 84 -107 151 -228 164 -298 l6 -35 -58 61 c-32 33 -96
105 -142 160 -86 102 -153 174 -310 328 -88 87 -91 89 -110 72 -11 -10 -27
-33 -36 -52 -9 -19 -21 -34 -28 -34 -20 1 -170 212 -304 428 -48 78 -116 179
-151 224 l-62 82 27 12 c16 6 39 23 52 38 14 14 26 25 27 23 1 -1 22 -40 47
-87z m-308 -175 c55 -55 143 -140 196 -190 97 -91 132 -130 165 -180 21 -32
24 -33 -87 22 -46 23 -113 53 -149 67 -36 14 -73 36 -83 48 -31 38 -237 417
-237 436 0 2 21 -20 47 -50 26 -29 93 -98 148 -153z m-2060 -217 c-3 -35 -8
-82 -10 -106 -4 -39 -3 -43 18 -41 36 3 57 0 57 -10 0 -8 -117 -190 -129 -201
-22 -19 -133 -166 -206 -274 -103 -150 -235 -299 -235 -263 0 48 134 400 205
537 17 34 94 150 106 160 14 12 163 217 172 238 18 40 27 23 22 -40z m1700
-58 c168 -12 329 -59 510 -149 243 -121 391 -230 518 -381 39 -47 78 -92 86
-100 35 -36 143 -215 190 -315 120 -255 171 -464 171 -704 0 -391 -110 -724
-341 -1036 -88 -118 -118 -150 -219 -235 -263 -220 -580 -374 -853 -414 -241
-35 -564 -9 -789 65 -116 38 -299 127 -398 194 -236 158 -443 391 -563 636
-69 140 -97 217 -143 396 -33 128 -36 152 -41 336 -8 260 12 382 99 627 68
189 141 316 304 526 66 86 223 229 314 286 226 144 483 242 705 271 59 8 333
6 450 -3z m-1595 -416 c14 -70 8 -89 -63 -184 -77 -103 -169 -275 -224 -420
-72 -190 -104 -244 -165 -276 -33 -17 -174 -43 -238 -44 -70 -2 -104 -20 -185
-98 -93 -91 -111 -137 -100 -265 l7 -82 -38 -52 c-46 -61 -53 -63 -213 -62
l-116 0 40 34 c22 18 76 62 120 97 78 63 117 110 102 124 -11 12 -109 -59
-157 -114 -25 -29 -63 -72 -86 -97 l-41 -45 -87 0 -86 0 0 76 0 76 94 101 c52
56 147 165 211 242 112 134 312 359 403 455 l44 45 -6 -39 c-3 -22 -22 -64
-42 -95 -49 -74 -169 -272 -194 -321 -19 -37 -19 -38 -1 -33 40 10 613 594
745 758 27 33 92 109 145 169 53 59 98 112 100 118 6 19 18 -7 31 -68z m-732
-44 c4 -3 13 -22 20 -43 12 -33 11 -40 -6 -65 -10 -15 -40 -66 -65 -114 -87
-163 -141 -231 -382 -490 -60 -65 -142 -159 -180 -208 -73 -93 -163 -190 -177
-190 -4 0 -8 74 -8 165 l0 165 101 97 c56 54 144 154 197 223 104 134 115 138
89 27 -25 -102 -29 -127 -20 -127 5 0 33 27 62 61 39 44 81 114 150 253 53
105 121 229 151 275 l55 84 3 -54 c2 -29 6 -56 10 -59z m137 93 c0 -6 3 -15 8
-19 4 -4 7 -14 7 -23 -1 -12 -6 -10 -20 8 -22 26 -27 55 -7 49 6 -3 12 -10 12
-15z m3440 -123 c150 -166 874 -894 882 -887 3 3 -2 29 -11 59 -11 38 -45 92
-117 188 -56 74 -112 158 -125 185 -21 46 -56 175 -48 175 2 0 30 -35 62 -78
32 -44 76 -100 98 -127 51 -62 236 -279 244 -285 3 -3 35 -45 70 -95 35 -49
96 -124 135 -165 38 -42 109 -119 158 -173 87 -98 87 -98 87 -152 0 -30 -3
-55 -7 -55 -5 1 -24 9 -43 20 -55 30 -82 42 -130 59 -99 36 -326 228 -377 319
-83 150 -65 132 -168 167 -50 18 -66 32 -207 185 -50 53 -62 58 -28 10 11 -16
34 -61 51 -102 16 -40 33 -79 36 -87 5 -11 -13 -12 -108 -6 -63 4 -119 12
-125 18 -7 7 -28 65 -48 131 -34 113 -102 277 -150 361 -128 225 -162 290
-187 355 -33 85 -35 95 -11 60 9 -13 39 -49 67 -80z m852 -389 c6 -10 30 -54
53 -97 35 -68 37 -74 13 -45 -49 59 -112 154 -107 162 7 12 28 1 41 -20z m343
-196 c24 -44 73 -118 109 -165 35 -47 80 -104 98 -128 26 -34 33 -53 33 -88 0
-30 -4 -44 -13 -44 -17 0 -155 182 -255 335 -48 75 -92 185 -98 245 l-6 65 44
-70 c24 -38 64 -106 88 -150z m-4611 -414 c153 -78 159 -292 11 -367 -75 -39
-167 -25 -225 33 -44 44 -59 91 -52 166 13 140 150 227 266 168z m4151 -26 l0
-34 -107 -3 -108 -3 -3 -39 -3 -38 90 3 91 4 0 -37 0 -38 -90 0 c-49 0 -90 -4
-90 -9 0 -5 3 -23 6 -40 l7 -31 98 0 c55 0 99 -4 99 -9 0 -5 3 -22 6 -39 l6
-31 -146 -3 -146 -3 0 155 c0 85 -3 172 -6 192 l-7 37 144 3 c79 2 147 2 152
0 4 -2 7 -19 7 -37z m266 -247 c146 -149 142 -138 41 -138 -80 0 -86 1 -93 23
-4 12 -27 55 -51 95 -47 77 -52 122 -15 122 9 0 63 -46 118 -102z m-4231 -278
c3 -5 9 -33 12 -61 5 -43 4 -51 -8 -47 -69 27 -149 30 -509 24 -206 -3 -432
-9 -502 -13 l-128 -6 0 51 0 52 243 3 c644 7 886 7 892 -3z m4430 -5 c149 -3
231 -9 233 -15 2 -6 1 -25 -2 -43 l-6 -32 -178 2 c-630 7 -858 4 -897 -10
l-40 -14 40 -12 c43 -11 1022 -29 1064 -19 10 2 13 -66 14 -334 l2 -337 -120
-64 c-66 -35 -230 -123 -365 -196 -135 -73 -274 -149 -310 -168 -36 -20 -69
-39 -75 -43 -5 -4 -84 -48 -175 -97 -241 -132 -262 -144 -290 -163 -14 -10
-72 -42 -130 -71 -58 -29 -134 -70 -168 -91 -35 -22 -112 -64 -170 -94 -59
-31 -132 -71 -162 -89 -30 -18 -93 -52 -140 -77 -47 -24 -142 -77 -212 -116
-71 -40 -130 -72 -132 -72 -2 0 -33 -17 -68 -39 -86 -52 -224 -121 -243 -121
-8 0 -15 -5 -15 -10 0 -6 -8 -14 -17 -17 -10 -4 -37 -20 -61 -36 l-43 -29 -57
30 c-31 16 -111 58 -177 92 -66 34 -140 74 -165 88 -25 13 -94 52 -155 85 -60
33 -122 68 -137 78 -14 11 -29 19 -32 19 -3 0 -34 17 -68 38 -35 21 -97 55
-138 76 -41 21 -100 54 -131 72 -31 19 -59 34 -63 34 -4 0 -25 12 -49 27 -23
14 -121 68 -217 118 -191 100 -222 117 -230 126 -3 3 -45 27 -95 54 -49 27
-102 56 -116 65 -65 39 -235 131 -484 264 -11 6 -22 13 -25 17 -13 13 -139 87
-268 156 -48 25 -91 49 -97 53 -5 5 -52 29 -103 54 l-92 47 0 337 0 337 88 -6
c88 -7 906 -2 1018 6 l61 4 21 -47 c12 -26 44 -101 72 -167 28 -66 62 -136 74
-155 13 -20 33 -56 46 -80 12 -25 46 -77 76 -116 30 -39 54 -74 54 -77 0 -12
-77 -2 -93 11 -31 26 -157 32 -566 30 -377 -3 -415 -5 -425 -20 -5 -9 -7 -20
-3 -24 18 -18 948 -33 1042 -17 l50 9 90 -91 90 -90 -154 -5 -153 -5 20 -25
c20 -25 22 -25 179 -26 l160 -2 59 -40 c32 -22 71 -46 86 -52 15 -7 29 -19 32
-26 8 -21 -90 -28 -319 -21 -116 3 -297 3 -403 0 l-193 -6 3 -26 c2 -20 10
-27 37 -32 19 -4 255 -7 525 -7 l491 0 73 -30 c82 -34 145 -73 134 -84 -12
-11 -266 -13 -633 -4 -380 9 -429 5 -429 -35 0 -17 9 -18 148 -17 81 0 239 -5
352 -12 212 -12 474 -9 665 9 79 7 133 7 190 -2 50 -7 182 -9 355 -7 348 6
449 6 580 1 151 -6 878 8 920 17 21 5 36 15 38 25 7 34 -41 39 -283 33 -315
-9 -663 -11 -670 -5 -3 3 25 20 62 37 38 17 104 47 148 67 85 39 92 39 205 15
41 -9 158 -11 452 -6 219 4 404 9 413 12 8 4 15 17 15 30 0 18 -7 24 -32 29
-18 3 -228 4 -465 2 -238 -1 -433 -2 -433 -1 0 1 24 17 53 34 28 18 78 53 110
77 l58 44 377 4 c341 4 632 22 650 39 26 27 -130 36 -550 34 -212 -2 -389 0
-393 4 -4 3 30 42 75 85 46 43 98 103 117 133 20 30 44 64 54 76 58 62 231
463 254 584 14 75 -20 69 338 65 177 -3 425 -7 552 -10z"/>
<path d="M4422 8409 c18 -7 33 -7 45 0 14 8 9 10 -27 10 -42 -1 -43 -1 -18
-10z"/>
<path d="M5607 8409 c7 -7 21 -7 44 -1 l34 10 -44 1 c-32 1 -42 -2 -34 -10z"/>
<path d="M5670 8246 c0 -17 31 -26 87 -26 50 0 65 16 28 30 -40 15 -115 13
-115 -4z"/>
<path d="M4060 8240 c0 -5 12 -12 28 -15 15 -3 41 -10 58 -15 17 -6 35 -10 41
-10 17 0 44 30 38 41 -8 12 -165 12 -165 -1z"/>
<path d="M5835 8241 c-8 -15 50 -22 139 -19 52 2 81 7 84 16 3 9 -23 12 -107
12 -60 0 -112 -4 -116 -9z"/>
<path d="M3786 8112 c-7 -12 40 -22 102 -22 64 0 41 17 -34 25 -38 5 -64 3
-68 -3z"/>
<path d="M3977 8104 c-13 -14 6 -24 43 -24 21 0 41 4 44 9 10 15 -72 29 -87
15z"/>
<path d="M6040 8091 c-24 -7 -23 -8 10 -13 42 -7 100 1 100 13 0 10 -74 10
-110 0z"/>
<path d="M3760 7940 c0 -18 35 -60 51 -60 10 0 19 27 19 56 0 21 -5 24 -35 24
-28 0 -35 -4 -35 -20z"/>
<path d="M6278 7954 c-10 -3 -18 -12 -18 -20 0 -11 16 -14 68 -14 62 0 104 11
91 24 -8 8 -121 16 -141 10z"/>
<path d="M3500 7914 c15 -17 61 -15 68 4 2 8 -9 12 -38 12 -37 0 -41 -2 -30
-16z"/>
<path d="M6520 7920 c0 -12 54 -12 90 0 19 6 11 8 -32 9 -33 1 -58 -3 -58 -9z"/>
<path d="M3582 7823 c-13 -26 -4 -43 23 -43 27 0 40 26 24 46 -16 19 -37 17
-47 -3z"/>
<path d="M6420 7800 c0 -5 18 -10 40 -10 22 0 40 5 40 10 0 6 -18 10 -40 10
-22 0 -40 -4 -40 -10z"/>
<path d="M3285 7790 c-4 -6 17 -10 55 -10 38 0 59 4 55 10 -3 6 -28 10 -55 10
-27 0 -52 -4 -55 -10z"/>
<path d="M3070 7642 c-5 -2 -46 -9 -92 -15 -52 -8 -83 -17 -86 -26 -4 -11 7
-13 59 -7 35 4 72 12 84 19 11 6 52 14 90 17 l70 6 -58 4 c-31 3 -62 4 -67 2z"/>
<path d="M6920 7630 c0 -5 14 -10 32 -10 36 0 35 4 -4 14 -17 4 -28 2 -28 -4z"/>
<path d="M7060 7616 c14 -8 48 -15 75 -17 39 -3 50 -1 50 11 0 12 -16 16 -75
17 -69 3 -73 2 -50 -11z"/>
<path d="M6965 7470 c-9 -15 18 -64 36 -68 11 -2 18 7 23 29 3 17 3 35 0 40
-7 12 -51 11 -59 -1z"/>
<path d="M2835 7440 c3 -5 32 -9 63 -9 57 1 57 1 17 10 -56 11 -87 11 -80 -1z"/>
<path d="M3100 7421 c0 -21 19 -31 61 -31 35 0 37 12 4 34 -34 22 -65 21 -65
-3z"/>
<path d="M7130 7408 c0 -17 98 -34 113 -19 13 13 -6 21 -63 28 -40 5 -50 3
-50 -9z"/>
<path d="M2465 7304 c-6 -1 -23 -5 -40 -9 -29 -6 -29 -7 -11 -21 25 -17 65
-18 89 0 9 7 17 16 17 18 0 7 -42 15 -55 12z"/>
<path d="M7607 7303 c-10 -2 -17 -12 -15 -21 4 -19 69 -28 127 -17 29 5 32 8
20 20 -15 15 -102 27 -132 18z"/>
<path d="M7386 7235 c-3 -9 -6 -29 -6 -45 0 -24 -6 -30 -42 -42 -35 -12 -43
-19 -43 -39 0 -20 6 -25 34 -29 35 -5 42 -13 58 -65 13 -45 41 -39 66 15 16
33 29 46 47 48 54 8 67 46 23 63 -52 20 -57 25 -68 65 -8 31 -16 40 -36 42
-17 2 -29 -3 -33 -13z"/>
<path d="M7000 7225 c0 -12 15 -15 81 -15 60 0 80 3 77 13 -3 8 -31 13 -81 15
-64 2 -77 0 -77 -13z"/>
<path d="M3015 7220 c-4 -6 8 -10 29 -10 20 0 36 5 36 10 0 6 -13 10 -29 10
-17 0 -33 -4 -36 -10z"/>
<path d="M2618 7213 c6 -2 18 -2 25 0 6 3 1 5 -13 5 -14 0 -19 -2 -12 -5z"/>
<path d="M2605 7100 c-9 -15 4 -30 26 -30 22 0 24 11 7 28 -15 15 -25 15 -33
2z"/>
<path d="M2443 7063 c-20 -7 -15 -23 7 -23 11 0 20 4 20 9 0 13 -12 19 -27 14z"/>
<path d="M7770 7050 c-12 -8 -9 -10 13 -10 16 0 26 4 22 10 -8 12 -16 12 -35
0z"/>
<path d="M2505 6906 c-17 -12 -14 -14 34 -21 53 -7 80 2 67 24 -10 16 -79 14
-101 -3z"/>
<path d="M7541 6896 c-9 -11 -8 -15 5 -20 23 -9 77 -7 94 4 11 7 9 11 -13 19
-39 15 -72 14 -86 -3z"/>
<path d="M2356 6750 c-27 -3 -51 -11 -54 -17 -3 -10 19 -13 87 -13 56 0 91 4
91 10 0 20 -52 28 -124 20z"/>
<path d="M7620 6735 c0 -12 17 -15 101 -15 76 0 100 3 97 13 -3 8 -35 13 -101
15 -82 2 -97 0 -97 -13z"/>
<path d="M4851 7203 c-30 -4 -33 -7 -27 -31 3 -15 13 -74 21 -132 9 -58 18
-106 20 -108 1 -2 14 0 29 4 l26 6 -1 102 c-1 110 -9 158 -24 161 -5 1 -25 0
-44 -2z"/>
<path d="M4951 7153 c4 -32 9 -105 11 -162 l3 -104 -70 -12 c-166 -29 -413
-127 -528 -209 -102 -74 -238 -197 -293 -265 -58 -72 -181 -309 -218 -422 -14
-42 -34 -123 -44 -180 -18 -104 -18 -104 -53 -116 -19 -7 -90 -12 -161 -12
l-128 -1 0 -35 0 -35 70 0 c80 0 370 40 545 75 110 23 374 63 520 80 33 4 63
9 68 12 9 5 -4 30 -66 123 -27 41 -88 138 -135 215 -47 77 -102 160 -122 185
-67 83 -97 126 -75 110 83 -61 331 -300 457 -440 47 -52 100 -103 117 -113
l31 -18 0 42 c0 23 11 107 25 188 13 80 34 209 45 286 11 77 31 199 45 270 13
72 29 173 35 225 7 52 14 106 17 120 8 43 20 3 38 -135 15 -110 16 -176 11
-425 -3 -162 -9 -343 -12 -402 l-6 -106 -35 -7 c-59 -11 -138 -50 -172 -86
-41 -44 -78 -115 -92 -179 l-11 -50 -106 -1 c-59 -1 -93 -4 -77 -6 17 -1 53
-6 82 -9 37 -4 53 -10 56 -22 4 -14 5 -13 6 3 1 17 3 18 11 5 8 -11 12 -12 18
-3 5 8 17 -14 32 -58 14 -39 33 -75 42 -80 10 -5 18 -14 18 -20 0 -6 -48 -62
-107 -125 -60 -64 -110 -121 -112 -127 -5 -15 -12 -21 103 92 53 52 96 89 96
83 0 -7 7 -9 17 -5 11 4 14 3 9 -5 -4 -7 -3 -12 2 -12 13 0 23 27 16 45 -8 21
5 19 67 -9 30 -14 72 -28 94 -32 22 -4 45 -14 52 -23 11 -14 12 -14 13 2 0 11
8 17 24 17 38 0 88 21 130 53 l39 31 36 -40 c20 -22 56 -56 81 -74 53 -39 203
-172 208 -182 2 -5 12 -8 22 -8 21 0 43 -24 32 -34 -4 -4 -2 -6 3 -4 10 3 70
-59 164 -170 29 -34 49 -62 45 -62 -4 0 -33 20 -63 44 -31 23 -94 65 -141 91
-138 78 -309 183 -358 220 -73 57 -75 55 -101 -102 -25 -155 -72 -403 -101
-538 -11 -49 -24 -115 -30 -145 -5 -30 -16 -80 -24 -110 -11 -45 -14 -49 -16
-25 -1 17 -3 57 -5 91 -2 33 -15 108 -29 165 -14 57 -42 205 -61 329 -49 313
-57 357 -66 371 -8 13 -57 -15 -178 -104 -31 -23 -116 -73 -190 -112 -75 -39
-160 -93 -194 -122 -54 -48 -77 -62 -77 -49 0 3 22 30 49 61 28 31 70 87 96
123 25 37 76 110 112 162 149 215 173 251 173 263 0 9 -32 17 -102 26 -109 13
-360 57 -518 91 -122 25 -236 37 -432 45 l-158 6 0 -33 c0 -59 2 -60 161 -51
79 4 149 8 154 8 6 0 13 -29 16 -65 9 -85 40 -187 104 -336 62 -147 85 -186
170 -291 133 -165 263 -272 441 -361 91 -46 278 -103 397 -122 l77 -13 0 -33
c0 -18 -5 -34 -12 -36 -12 -4 -31 -233 -21 -250 2 -5 19 -8 37 -8 l32 0 -4 68
c-3 62 -2 65 12 48 9 -11 19 -36 22 -55 10 -57 22 -73 52 -69 l27 3 0 160 c0
88 4 166 8 173 5 7 30 12 62 12 117 0 285 52 452 141 131 70 212 128 309 224
138 136 221 262 308 467 49 113 63 168 75 275 5 53 10 67 21 64 8 -3 81 -7
162 -10 141 -6 147 -5 152 14 15 54 20 52 -176 60 -178 6 -188 6 -343 -25
-140 -27 -312 -49 -263 -34 16 5 16 7 4 20 -8 8 -19 14 -25 14 -6 0 -10 6 -9
13 2 9 -52 12 -244 12 l-246 0 -16 65 c-9 35 -27 81 -41 102 -30 45 -32 68 -6
68 39 0 572 -81 686 -104 212 -43 477 -84 583 -90 l103 -6 -6 67 c-11 126 -14
135 -38 130 -12 -3 -68 -13 -125 -23 -101 -17 -103 -18 -100 -43 3 -30 20 -32
166 -18 l82 8 0 -25 0 -26 -154 0 c-175 0 -159 -9 -171 95 -38 338 -273 711
-574 909 -53 35 -118 75 -146 88 -107 54 -291 108 -417 123 -45 6 -59 12 -64
27 -3 11 -6 85 -7 165 l-1 144 -35 -3 c-33 -3 -36 -6 -42 -41 -8 -53 -16 -55
-26 -5 -8 42 -10 43 -49 46 l-41 3 8 -58z m-196 -520 c21 -20 37 -62 29 -74
-10 -16 -22 -10 -28 16 -7 29 -43 52 -58 37 -6 -6 -10 -23 -10 -38 0 -31 38
-67 62 -58 45 18 52 17 48 -7 -2 -18 -13 -27 -43 -37 -22 -7 -47 -20 -57 -29
-16 -14 -18 -14 -28 13 -6 16 -15 41 -22 57 -12 32 -6 101 12 122 17 20 75 19
95 -2z m676 -4 c47 -24 46 -43 -2 -47 -18 -2 -37 -9 -41 -15 -10 -16 -10 -67
0 -68 4 0 15 -2 25 -4 11 -2 17 3 17 16 0 10 3 19 8 19 4 0 6 -20 4 -45 -4
-50 -13 -54 -71 -34 -30 11 -43 41 -22 53 5 4 12 25 16 49 10 69 16 97 21 97
3 0 23 -9 45 -21z m153 -32 c22 -12 41 -28 44 -34 6 -19 -27 -28 -49 -15 -30
19 -39 14 -39 -22 0 -28 -4 -35 -25 -40 -28 -7 -33 -27 -11 -45 11 -9 18 -6
33 15 35 47 60 3 27 -45 -14 -19 -22 -22 -53 -16 -53 10 -62 21 -55 69 9 61
54 156 73 156 9 0 34 -10 55 -23z m-987 -39 c3 -27 1 -48 -2 -48 -4 0 -20 9
-36 21 -33 23 -38 53 -11 68 32 19 45 8 49 -41z m42 -83 c2 -60 -55 -100 -79
-56 -15 29 -2 51 31 51 27 0 29 3 30 38 0 30 2 33 9 17 5 -11 9 -34 9 -50z
m1215 -117 c-50 -54 -85 -93 -123 -138 -18 -21 -20 -22 -15 -5 4 14 -4 10 -27
-15 -64 -69 -198 -206 -279 -285 -45 -44 -86 -88 -91 -97 -14 -27 -37 -22 -43
10 -8 41 -26 155 -26 170 0 7 12 18 28 25 53 23 389 233 522 326 47 33 89 60
94 60 5 1 -13 -23 -40 -51z m-1579 -274 c32 -21 23 -36 -15 -23 -32 12 -105
-5 -95 -21 3 -5 28 -16 56 -25 28 -10 53 -23 56 -30 2 -8 -10 -35 -27 -61 -36
-51 -23 -48 -140 -28 -57 10 -92 54 -54 68 26 10 32 7 36 -16 4 -31 34 -35 42
-6 l7 23 10 -21 c8 -16 20 -21 50 -21 42 0 55 21 20 32 -10 3 -47 24 -81 46
-49 31 -61 44 -58 62 3 19 9 22 56 23 29 1 56 5 59 8 12 11 54 6 78 -10z
m1765 10 c0 -14 -36 -33 -63 -34 -39 0 -67 -17 -67 -40 0 -27 41 -27 65 0 11
12 25 18 36 15 10 -4 29 1 42 10 22 14 26 14 47 -3 30 -24 20 -38 -31 -45 -48
-6 -45 -5 -54 -40 -6 -23 -4 -27 14 -27 12 0 38 7 58 15 44 19 43 19 43 -2 0
-35 -17 -44 -96 -53 -94 -10 -97 -8 -137 88 -38 90 -37 96 26 109 63 12 117
15 117 7z m-453 -53 c-1 -12 -6 -17 -16 -13 -10 4 -13 1 -8 -11 3 -9 3 -19 -2
-21 -14 -9 -9 29 7 47 19 22 21 21 19 -2z m106 -188 c-10 -16 -23 -34 -30 -40
-14 -15 -117 -18 -108 -3 3 6 14 10 24 10 10 0 42 13 72 29 30 17 55 30 57 30
1 1 -5 -11 -15 -26z m-545 -117 c59 -31 92 -89 92 -162 0 -155 -181 -227 -284
-113 -80 87 -68 201 27 263 47 30 120 35 165 12z m323 -346 c7 0 39 -62 39
-76 0 -2 -7 -4 -16 -4 -8 0 -12 -4 -9 -10 3 -5 2 -17 -3 -26 -6 -11 -11 -13
-16 -5 -5 8 -13 8 -28 0 -11 -6 -18 -7 -14 -1 3 5 -5 30 -18 55 -12 25 -20 50
-17 55 7 12 42 21 59 16 8 -2 18 -4 23 -4z m-1233 -95 c22 -48 15 -83 -20
-105 -18 -11 -46 -19 -63 -19 -16 1 -36 0 -44 -2 -9 -3 -14 5 -15 23 -1 15
-12 38 -26 52 -13 14 -21 29 -18 32 11 10 122 43 149 43 18 1 29 -6 37 -24z
m1766 16 c3 -5 23 -12 43 -15 60 -11 73 -16 73 -32 0 -18 -33 -18 -93 0 l-47
14 0 -25 c0 -14 -4 -22 -10 -18 -6 4 -8 16 -5 28 l5 22 -11 -22 c-6 -12 -9
-29 -6 -38 8 -20 40 -32 45 -17 4 14 42 16 42 2 0 -5 9 -18 20 -28 19 -17 19
-22 8 -58 l-13 -39 -80 4 c-118 5 -137 22 -95 86 11 17 20 40 20 52 0 45 86
114 104 84z m-1744 -157 c16 -41 -1 -60 -62 -67 -99 -12 -118 -10 -118 16 0
20 4 22 63 22 68 -1 87 7 87 36 0 28 19 23 30 -7z m1328 -376 c16 -16 15 -43
-3 -58 -12 -10 -15 -9 -15 8 0 25 -25 46 -45 38 -25 -9 -17 -44 13 -61 15 -8
44 -30 66 -48 l38 -34 -20 -19 c-12 -11 -38 -26 -58 -33 -40 -15 -54 -6 -54
34 0 16 7 20 32 20 45 0 45 20 -1 34 -41 12 -71 42 -71 72 0 41 89 76 118 47z
m-843 -32 c50 -33 19 -49 -36 -20 -30 15 -95 11 -84 -6 3 -4 28 -20 57 -35 29
-15 59 -32 66 -37 18 -15 15 -48 -8 -85 -25 -42 -60 -44 -89 -6 l-21 26 21 23
21 22 -29 18 c-33 21 -62 54 -63 72 0 6 8 20 19 31 23 23 109 21 146 -3z m695
-5 c0 -5 3 -17 7 -26 5 -15 3 -16 -16 -6 -24 13 -41 7 -41 -15 0 -9 10 -14 29
-14 37 0 61 -31 61 -81 0 -42 -27 -71 -65 -71 -35 0 -55 19 -55 53 0 22 5 29
20 29 17 0 19 -5 14 -25 -5 -20 -2 -25 14 -25 43 0 52 52 11 65 -24 8 -79 54
-79 66 0 18 53 59 76 59 13 0 24 -4 24 -9z m-852 -117 c28 -19 30 -54 2 -54
-22 0 -55 43 -45 60 8 14 17 13 43 -6z"/>
<path d="M4140 6064 c0 -8 5 -12 10 -9 6 3 10 10 10 16 0 5 -4 9 -10 9 -5 0
-10 -7 -10 -16z"/>
<path d="M5950 5965 c-17 -21 -2 -50 26 -50 14 0 19 7 19 30 0 34 -24 45 -45
20z"/>
<path d="M5026 5634 c-50 -49 -12 -134 60 -134 24 0 64 47 64 75 0 57 -86 98
-124 59z"/>
<path d="M4134 5270 c-30 -12 -38 -28 -23 -46 11 -14 15 -13 30 8 16 20 21 21
38 11 24 -15 54 -6 47 14 -3 8 -6 17 -6 19 0 7 -64 3 -86 -6z"/>
<path d="M5914 5165 c-13 -32 4 -45 54 -45 50 0 86 20 62 35 -6 4 -14 5 -16 2
-3 -3 -21 1 -39 9 -43 18 -54 18 -61 -1z"/>
<path d="M4675 4610 c-8 -13 13 -40 31 -40 8 0 14 10 14 25 0 18 -5 25 -19 25
-11 0 -23 -5 -26 -10z"/>
<path d="M5180 7070 l0 -130 30 0 c34 0 36 5 44 120 3 41 8 90 12 108 l7 32
-47 0 -46 0 0 -130z"/>
<path d="M4722 7183 c-19 -4 -23 -9 -18 -26 4 -12 18 -69 33 -127 14 -58 29
-109 33 -113 4 -4 18 -3 32 2 29 11 29 3 -3 163 -10 53 -19 99 -19 102 0 6
-21 6 -58 -1z"/>
<path d="M5306 7168 c-8 -38 -26 -189 -26 -220 0 -24 4 -28 29 -28 27 0 29 3
45 73 22 93 35 180 29 190 -2 4 -20 7 -38 7 -28 0 -36 -4 -39 -22z"/>
<path d="M4618 7158 c-34 -12 -34 -17 -5 -104 13 -38 30 -93 36 -121 8 -31 19
-53 26 -53 29 0 45 13 45 37 0 30 -62 253 -70 252 -3 0 -17 -5 -32 -11z"/>
<path d="M5424 7133 c-3 -21 -12 -63 -19 -93 -7 -30 -16 -74 -20 -97 -6 -40
-5 -44 21 -53 15 -6 28 -9 30 -8 2 3 45 181 61 254 4 16 -1 23 -19 27 -41 11
-47 8 -54 -30z"/>
<path d="M5531 7103 c-30 -117 -40 -162 -43 -198 -3 -34 0 -40 18 -43 19 -3
26 8 52 80 28 79 52 155 52 170 0 5 -54 28 -66 28 -2 0 -8 -17 -13 -37z"/>
<path d="M4501 7119 c-29 -11 -26 -23 33 -163 33 -76 48 -101 62 -101 10 0 20
8 22 19 5 26 -69 256 -82 255 -6 0 -22 -5 -35 -10z"/>
<path d="M5656 7088 c-3 -7 -20 -60 -40 -117 -43 -124 -45 -144 -13 -139 18 2
30 24 69 118 l47 115 -20 18 c-25 20 -38 22 -43 5z"/>
<path d="M4393 7075 c-24 -17 -24 -20 16 -108 10 -23 29 -66 41 -94 18 -42 27
-53 46 -53 32 0 36 12 20 58 -22 61 -90 212 -96 212 -3 0 -15 -7 -27 -15z"/>
<path d="M5760 7039 c0 -5 -21 -57 -46 -115 -25 -58 -43 -112 -40 -120 14 -35
38 -9 91 96 30 60 55 114 55 118 0 5 -11 14 -25 20 -32 15 -35 15 -35 1z"/>
<path d="M4285 7016 l-30 -25 30 -57 c16 -32 46 -84 67 -116 35 -54 40 -58 61
-47 12 6 24 13 26 15 3 3 -117 254 -122 254 -1 0 -15 -11 -32 -24z"/>
<path d="M5799 6883 c-47 -88 -59 -120 -52 -132 18 -29 40 -23 64 16 12 21 45
72 72 113 l49 74 -27 23 c-14 13 -30 23 -35 23 -4 0 -36 -53 -71 -117z"/>
<path d="M4165 6933 c-162 -117 -179 -133 -137 -133 9 0 54 -39 98 -86 58 -62
86 -85 98 -81 9 4 16 15 16 25 0 22 -45 93 -100 155 -43 49 -47 57 -27 57 34
0 68 -30 113 -99 27 -42 56 -77 65 -79 8 -1 21 8 28 22 13 23 9 33 -38 125
-28 55 -51 107 -51 116 0 21 -8 18 -65 -22z"/>
<path d="M5902 6838 c-83 -130 -87 -139 -71 -149 26 -16 36 -9 104 79 38 48
75 93 84 100 14 12 13 16 -12 38 -15 13 -32 24 -37 24 -4 0 -35 -42 -68 -92z"/>
<path d="M5988 6773 c-82 -109 -91 -126 -76 -141 21 -21 35 -13 104 65 38 42
77 83 87 92 9 8 17 21 17 27 0 12 -42 44 -58 44 -4 0 -38 -39 -74 -87z"/>
<path d="M3952 6778 c-7 -7 -12 -17 -12 -22 0 -6 36 -49 80 -95 44 -46 80 -87
80 -91 0 -11 59 -34 67 -27 16 16 -34 102 -99 172 -69 74 -92 87 -116 63z"/>
<path d="M6093 6724 c-101 -115 -135 -165 -122 -180 6 -8 17 -14 23 -14 6 0
51 45 99 100 48 55 92 100 97 100 19 0 10 28 -14 44 -24 15 -25 14 -83 -50z"/>
<path d="M3874 6684 c-10 -14 -13 -28 -8 -33 5 -4 34 -27 64 -51 30 -24 72
-61 93 -82 31 -31 42 -37 53 -27 8 6 14 15 14 20 0 11 -182 199 -192 199 -4 0
-15 -11 -24 -26z"/>
<path d="M6171 6644 c-28 -30 -68 -76 -88 -101 -36 -43 -36 -46 -18 -59 17
-12 25 -8 84 48 97 90 121 116 121 127 0 12 -28 41 -40 41 -4 0 -31 -25 -59
-56z"/>
<path d="M3811 6604 c-11 -14 -21 -29 -21 -33 0 -3 20 -18 43 -33 23 -15 71
-50 106 -78 50 -40 66 -48 77 -39 8 6 14 20 14 29 0 20 -67 83 -140 133 -25
17 -48 35 -51 40 -3 5 -16 -4 -28 -19z"/>
<path d="M6288 6613 c-1 -5 -32 -33 -68 -63 -36 -30 -76 -68 -89 -83 -21 -25
-22 -30 -9 -43 13 -14 22 -10 80 33 35 26 83 62 106 78 23 17 42 33 42 36 0 3
-8 16 -19 27 -19 22 -37 28 -43 15z"/>
<path d="M3741 6509 l-20 -32 22 -17 c12 -9 62 -43 110 -75 85 -57 89 -59 103
-40 8 10 14 24 14 31 0 7 -42 43 -92 80 -51 37 -98 71 -105 76 -9 7 -18 0 -32
-23z"/>
<path d="M6267 6454 c-100 -77 -118 -97 -99 -116 14 -14 100 27 171 80 29 23
58 43 64 45 11 3 -19 67 -31 66 -4 0 -51 -34 -105 -75z"/>
<path d="M6404 6426 c-11 -12 -57 -48 -102 -80 -85 -62 -86 -64 -76 -90 10
-25 34 -19 109 25 146 85 153 93 112 140 l-22 25 -21 -20z"/>
<path d="M3675 6404 c-20 -31 -33 -20 119 -106 91 -52 102 -56 114 -41 18 25
16 28 -36 67 -41 30 -168 106 -177 106 -1 0 -10 -12 -20 -26z"/>
<path d="M3616 6304 c-3 -9 -6 -19 -6 -24 0 -10 226 -120 246 -120 22 0 17 34
-8 57 -30 27 -182 103 -207 103 -10 0 -22 -7 -25 -16z"/>
<path d="M6414 6279 c-113 -58 -147 -85 -134 -109 9 -18 17 -16 123 34 114 54
137 77 104 104 -10 9 -31 2 -93 -29z"/>
<path d="M3571 6204 c-14 -32 -12 -35 64 -64 33 -13 87 -36 119 -52 33 -15 60
-27 61 -25 1 1 5 15 9 30 6 27 4 29 -96 76 -140 66 -142 67 -157 35z"/>
<path d="M6420 6169 c-105 -59 -122 -76 -98 -97 10 -8 29 -4 73 15 33 14 87
35 120 47 33 11 62 22 64 24 9 5 -29 72 -41 71 -7 0 -60 -27 -118 -60z"/>
<path d="M3540 6095 c-5 -14 -10 -30 -10 -34 0 -7 157 -59 233 -77 25 -6 27
-4 27 23 0 28 -4 30 -107 67 -60 22 -114 41 -120 44 -7 2 -17 -8 -23 -23z"/>
<path d="M6463 6072 c-62 -25 -113 -51 -113 -56 0 -6 4 -18 10 -26 8 -12 24
-10 114 18 58 18 112 32 121 32 13 0 15 6 10 33 -8 37 -13 47 -23 46 -4 0 -58
-21 -119 -47z"/>
<path d="M3514 5996 c-15 -39 -1 -50 101 -76 55 -14 110 -29 121 -33 17 -6 23
-3 28 15 3 13 6 26 6 30 0 7 -165 63 -218 73 -24 5 -34 3 -38 -9z"/>
<path d="M6545 5991 c-141 -39 -165 -51 -165 -78 0 -24 2 -25 38 -19 20 4 78
16 129 28 90 21 92 22 86 47 -7 32 -12 41 -21 40 -4 -1 -34 -9 -67 -18z"/>
<path d="M3497 5903 c-11 -20 -16 -62 -8 -68 10 -6 203 -35 237 -35 15 0 23 8
26 24 6 30 4 31 -122 56 -52 10 -102 21 -111 25 -10 3 -19 3 -22 -2z"/>
<path d="M6523 5876 c-112 -27 -123 -32 -123 -53 0 -12 3 -24 8 -26 5 -3 199
22 250 32 5 2 1 57 -6 67 -5 7 -46 1 -129 -20z"/>
<path d="M3477 5783 c-4 -3 -7 -21 -7 -39 l0 -32 88 -7 c171 -13 167 -13 170
17 4 30 14 26 -138 48 -41 6 -82 13 -91 16 -8 2 -18 1 -22 -3z"/>
<path d="M3585 5447 c-55 -5 -101 -11 -103 -12 -2 -2 0 -19 4 -39 7 -42 -4
-41 167 -9 85 16 88 18 85 43 -4 30 -13 31 -153 17z"/>
<path d="M6417 5454 c-10 -10 -9 -42 2 -48 16 -10 222 -38 237 -32 8 3 14 19
14 39 l0 34 -82 2 c-46 1 -101 4 -123 7 -22 3 -43 2 -48 -2z"/>
<path d="M3610 5337 c-58 -11 -107 -21 -108 -23 -2 -1 -1 -17 3 -34 7 -32 8
-32 53 -25 49 7 193 43 199 49 2 2 1 15 -3 30 -7 30 -4 30 -144 3z"/>
<path d="M6404 5335 c-4 -14 -4 -28 -1 -31 8 -9 221 -45 234 -39 7 2 13 16 13
29 0 21 -7 27 -37 35 -30 8 -179 31 -199 31 -2 0 -6 -11 -10 -25z"/>
<path d="M3705 5244 c-33 -7 -88 -18 -121 -25 l-62 -12 9 -30 c5 -16 10 -31
11 -33 4 -3 176 48 221 65 29 11 34 23 15 38 -9 7 -33 6 -73 -3z"/>
<path d="M6376 5243 c-8 -21 4 -33 51 -50 61 -21 185 -54 189 -50 2 2 7 18 10
35 5 23 2 33 -7 36 -44 12 -207 46 -220 46 -9 0 -20 -8 -23 -17z"/>
<path d="M6340 5151 c0 -13 26 -30 103 -66 56 -26 107 -49 114 -52 10 -4 49
54 41 62 -7 6 -229 75 -243 75 -8 0 -15 -8 -15 -19z"/>
<path d="M3652 5127 c-93 -32 -94 -32 -88 -61 4 -16 8 -31 10 -33 2 -2 56 18
120 44 85 35 116 53 116 66 0 26 -49 21 -158 -16z"/>
<path d="M3790 5076 c-19 -7 -72 -32 -117 -55 -80 -40 -82 -42 -71 -66 6 -14
16 -25 22 -25 6 0 58 26 116 58 74 41 105 64 105 77 0 24 -12 26 -55 11z"/>
<path d="M6300 5070 c0 -13 16 -28 48 -46 26 -15 78 -45 116 -67 66 -38 70
-39 83 -21 26 36 15 48 -100 102 -123 57 -147 62 -147 32z"/>
<path d="M3755 4944 c-60 -30 -111 -58 -112 -62 -2 -4 6 -22 17 -40 l20 -33
28 21 c15 12 62 44 105 71 63 40 78 53 75 71 -2 12 -7 23 -13 24 -5 1 -59 -22
-120 -52z"/>
<path d="M6256 4984 c-3 -9 -6 -17 -6 -19 0 -12 52 -50 101 -75 31 -16 70 -40
86 -54 33 -27 44 -24 57 20 8 26 4 30 -115 93 -105 56 -114 58 -123 35z"/>
<path d="M3822 4856 c-112 -71 -128 -87 -111 -115 8 -11 19 -21 26 -21 10 0
182 109 207 131 12 10 -13 59 -28 58 -6 0 -48 -24 -94 -53z"/>
<path d="M6209 4894 c-12 -15 -9 -21 26 -51 68 -59 173 -126 185 -118 6 4 15
16 19 28 9 23 -7 39 -84 88 -40 26 -120 69 -128 69 -3 0 -11 -7 -18 -16z"/>
<path d="M3895 4768 c-44 -27 -92 -57 -107 -66 -16 -9 -28 -21 -28 -25 0 -10
57 -90 86 -122 12 -13 24 -30 27 -39 4 -9 10 -16 15 -16 11 0 125 119 166 173
23 30 26 40 16 52 -7 8 -19 15 -26 15 -20 0 -150 -85 -176 -115 -25 -29 -43
-32 -52 -9 -3 9 -6 17 -6 18 0 1 45 33 100 72 54 38 99 74 100 81 0 7 -8 16
-17 21 -14 7 -38 -3 -98 -40z m39 -160 c-19 -33 -49 -68 -56 -68 -18 0 -6 27
24 52 37 31 42 33 32 16z"/>
<path d="M6152 4808 c-7 -7 -12 -17 -12 -22 0 -11 93 -85 168 -134 l35 -24 23
26 c13 14 24 27 24 30 0 9 -197 136 -211 136 -8 0 -20 -5 -27 -12z"/>
<path d="M6084 4715 c-7 -18 -3 -23 90 -127 38 -43 74 -78 81 -78 6 0 20 16
31 35 10 19 22 35 25 35 4 0 9 6 12 13 3 8 0 14 -7 14 -16 0 -95 50 -139 89
-39 36 -84 45 -93 19z m191 -115 c10 -11 14 -20 8 -20 -5 0 -18 9 -28 20 -10
11 -14 20 -8 20 5 0 18 -9 28 -20z"/>
<path d="M4018 4552 l-109 -107 31 -24 32 -23 70 73 c38 41 80 93 94 117 25
41 27 72 3 72 -6 0 -60 -48 -121 -108z"/>
<path d="M5997 4644 c-10 -10 17 -58 88 -151 65 -87 70 -91 87 -76 10 9 18 25
18 36 0 20 -68 120 -115 170 -24 25 -63 36 -78 21z"/>
<path d="M5943 4568 c-13 -13 -23 -27 -23 -31 0 -10 143 -207 150 -207 4 0 17
11 29 24 l23 24 -61 84 c-34 45 -70 94 -79 106 l-17 24 -22 -24z"/>
<path d="M4154 4543 c-16 -21 -56 -70 -90 -108 l-61 -71 22 -16 c21 -16 24
-15 72 35 72 75 135 171 120 186 -19 19 -33 13 -63 -26z"/>
<path d="M4240 4511 c0 -5 -6 -16 -13 -23 -7 -7 -41 -51 -77 -96 -51 -68 -62
-87 -53 -100 22 -35 41 -23 104 65 34 48 71 98 82 111 20 22 20 22 1 37 -22
16 -44 19 -44 6z"/>
<path d="M5846 4495 c-19 -14 -18 -16 14 -67 18 -29 49 -79 68 -110 19 -32 38
-58 42 -58 4 0 18 9 31 19 22 18 23 21 9 50 -22 45 -123 181 -135 181 -5 -1
-19 -7 -29 -15z"/>
<path d="M4287 4399 c-27 -33 -63 -83 -80 -111 -30 -49 -31 -51 -12 -64 30
-22 38 -17 72 39 17 28 52 79 77 112 41 54 44 61 29 73 -27 20 -36 15 -86 -49z"/>
<path d="M5758 4443 c-10 -2 -18 -8 -18 -12 0 -9 116 -221 127 -232 6 -6 19 1
33 16 l24 26 -23 42 c-33 61 -104 160 -116 163 -5 1 -18 0 -27 -3z"/>
<path d="M4353 4332 c-77 -130 -88 -166 -53 -175 25 -7 63 49 110 161 25 58
29 77 19 88 -6 8 -14 14 -18 14 -3 0 -29 -40 -58 -88z"/>
<path d="M5666 4392 c-6 -11 79 -219 99 -240 9 -10 17 -11 38 -1 15 7 27 15
27 18 -1 3 -26 56 -58 116 -43 83 -62 111 -79 113 -11 2 -24 -1 -27 -6z"/>
<path d="M4471 4358 c-5 -13 -28 -70 -51 -127 -40 -99 -41 -105 -24 -118 24
-18 31 -16 44 7 14 26 91 242 88 245 -2 1 -13 6 -25 9 -18 6 -25 2 -32 -16z"/>
<path d="M5583 4339 c3 -19 22 -80 43 -137 37 -99 39 -103 64 -97 14 4 27 8
28 10 7 7 -48 148 -77 199 -35 62 -67 76 -58 25z"/>
<path d="M4557 4288 c-14 -29 -35 -86 -47 -127 -22 -72 -22 -75 -5 -88 48 -34
58 -17 110 185 17 67 14 82 -15 82 -13 0 -26 -17 -43 -52z"/>
<path d="M5498 4323 c-10 -2 -18 -12 -18 -21 1 -22 57 -243 65 -250 3 -3 21 2
39 11 32 15 34 18 26 49 -12 52 -77 212 -87 214 -4 1 -16 0 -25 -3z"/>
<path d="M4671 4302 c-8 -15 -55 -181 -68 -239 -4 -17 0 -23 21 -29 14 -3 32
-4 40 -1 14 6 70 224 64 253 -5 26 -46 37 -57 16z"/>
<path d="M5410 4290 c-14 -3 -24 -13 -23 -21 21 -123 44 -234 51 -241 5 -5 20
-4 36 1 20 8 25 16 22 33 -32 151 -49 224 -55 229 -3 3 -17 3 -31 -1z"/>
<path d="M4771 4271 c-16 -29 -55 -236 -48 -254 7 -18 67 -25 67 -8 0 4 6 46
14 92 25 143 25 170 -1 180 -17 6 -25 4 -32 -10z"/>
<path d="M5291 4228 c0 -24 6 -86 12 -138 l12 -95 30 3 c17 2 33 7 38 11 4 4
-2 59 -13 122 -11 63 -20 120 -20 127 0 7 -13 12 -30 12 -29 0 -30 -2 -29 -42z"/>
<path d="M4857 4176 c-31 -153 -23 -196 33 -196 25 0 28 15 32 155 l3 120 -26
3 c-25 3 -26 0 -42 -82z"/>
<path d="M5180 4136 c0 -68 3 -131 6 -140 4 -11 19 -16 49 -16 44 0 44 0 39
33 -3 17 -11 79 -17 137 l-12 105 -33 3 -32 3 0 -125z"/>
<path d="M3236 6236 c-72 -77 -186 -226 -173 -226 23 0 244 180 254 207 7 18
-13 63 -28 63 -7 0 -30 -20 -53 -44z"/>
<path d="M7920 5863 c0 -6 8 -17 18 -24 16 -13 16 -13 2 6 -8 11 -16 22 -17
24 -2 2 -3 0 -3 -6z"/>
<path d="M2974 5691 c-41 -25 -58 -69 -49 -127 8 -56 39 -90 88 -99 123 -23
179 174 64 228 -45 22 -65 21 -103 -2z"/>
<path d="M2682 4979 c-244 -7 -318 -12 -340 -23 -23 -13 -24 -15 -7 -16 11 -1
31 -3 45 -6 42 -6 741 -5 805 2 138 15 96 43 -72 48 -65 2 -259 0 -431 -5z"/>
<path d="M6870 4969 c-7 -11 -10 -22 -8 -24 12 -12 313 -24 478 -20 265 8 280
10 280 41 l0 24 -370 0 c-364 0 -369 0 -380 -21z"/>
<path d="M2438 4829 c-152 -7 -170 -10 -199 -31 l-31 -23 29 -6 c38 -9 754
-11 931 -2 l143 6 -3 31 -3 31 -350 1 c-192 1 -425 -3 -517 -7z"/>
<path d="M7405 4828 c-220 -14 -240 -14 -407 -5 -133 8 -149 7 -154 -8 -17
-44 -3 -45 482 -52 443 -6 573 -2 604 17 21 13 9 21 -57 37 -78 19 -272 24
-468 11z"/>
<path d="M2530 4652 c-19 -2 -39 -9 -45 -16 -7 -8 -45 -12 -127 -12 -74 1
-121 -3 -128 -10 -9 -9 66 -13 292 -19 363 -8 923 -3 935 8 4 5 -5 20 -22 33
l-30 24 -420 -2 c-231 -2 -436 -4 -455 -6z"/>
<path d="M6728 4651 c-20 -4 -44 -13 -52 -20 -9 -7 -23 -11 -31 -7 -27 10 -16
-3 16 -20 28 -14 89 -15 545 -12 393 2 516 6 526 16 9 9 7 12 -12 12 -13 0
-32 8 -43 18 -18 16 -56 17 -466 18 -245 1 -463 -1 -483 -5z"/>
<path d="M6705 4470 c-66 -3 -129 -11 -141 -17 -14 -8 -24 -9 -31 -2 -8 8 -13
8 -17 0 -4 -5 7 -17 23 -26 26 -13 92 -15 460 -15 255 0 440 4 455 10 16 6 26
17 26 30 0 18 -7 20 -87 23 -155 4 -564 2 -688 -3z"/>
<path d="M2906 4272 c-4 -6 -4 -23 0 -37 l6 -25 133 0 c74 0 146 5 161 10 26
10 81 -1 110 -22 6 -5 20 -5 29 -1 12 4 16 3 12 -4 -7 -12 14 -23 42 -23 9 0
41 -16 71 -35 58 -37 96 -52 108 -41 3 4 0 11 -8 16 -13 8 -12 10 3 10 25 0
21 31 -8 58 -13 13 -25 33 -27 45 -2 15 -14 24 -43 33 -55 16 -580 30 -589 16z"/>
<path d="M5285 3719 c-88 -3 -331 -3 -540 -1 -488 6 -610 -7 -590 -60 6 -15
70 -16 683 -13 419 2 712 -1 770 -7 65 -7 121 -7 185 0 52 6 135 8 192 4 55
-4 152 -5 215 -2 108 5 115 6 112 25 -2 11 -6 22 -9 25 -2 3 -125 8 -271 13
-147 4 -339 11 -427 15 -88 4 -232 5 -320 1z"/>
<path d="M3853 3694 c-20 -9 2 -40 38 -53 36 -12 209 -15 209 -3 0 4 -20 17
-44 30 -43 23 -174 40 -203 26z"/>
<path d="M4856 3552 c-4 -3 -112 -9 -241 -12 -245 -6 -298 -16 -219 -41 59
-18 358 -23 535 -9 129 11 165 11 205 0 57 -16 497 -14 527 1 35 19 19 37 -40
43 -144 14 -423 17 -517 6 -67 -8 -107 -8 -125 -2 -35 14 -117 23 -125 14z"/>
<path d="M4005 3531 c-6 -11 33 -41 53 -41 19 0 120 -63 161 -100 18 -17 36
-30 40 -30 4 0 16 -9 26 -20 19 -21 97 -60 121 -60 25 0 89 -35 174 -95 47
-33 114 -75 150 -94 60 -31 170 -128 170 -151 0 -12 57 -70 69 -70 5 0 25 -9
44 -20 35 -21 87 -19 87 2 0 6 -8 7 -17 4 -17 -6 -17 -5 0 8 13 10 16 21 11
42 -6 25 -8 26 -20 10 -7 -10 -17 -15 -23 -12 -5 4 -12 2 -16 -4 -10 -16 -23
-12 -30 10 -7 23 -25 27 -25 5 0 -8 -5 -15 -11 -15 -7 0 -9 9 -5 23 4 12 9 38
11 57 4 34 4 34 -4 5 -5 -16 -9 -23 -10 -14 0 9 -8 20 -17 23 -9 3 -14 13 -11
20 3 8 1 17 -6 20 -7 2 0 5 16 5 18 1 27 6 28 19 0 15 2 14 10 -3 7 -15 8 -13
3 10 -4 17 -12 53 -18 82 -11 51 -12 51 -36 38 -14 -7 -28 -11 -32 -9 -3 2 -9
0 -13 -6 -3 -5 -1 -10 4 -10 6 0 11 -4 11 -10 0 -13 -67 -13 -72 1 -5 16 -133
68 -219 90 -40 9 -48 15 -53 41 -3 17 -3 34 0 40 4 6 73 7 182 3 149 -6 188
-4 247 10 104 25 150 27 169 6 14 -15 14 -26 2 -94 -7 -43 -10 -80 -6 -82 5
-3 21 -2 37 1 25 5 34 17 63 80 20 44 40 75 49 75 34 3 236 -3 244 -8 4 -2 7
-8 7 -13 0 -8 -149 -102 -176 -111 -6 -2 -30 -21 -53 -41 -31 -29 -41 -45 -41
-68 0 -27 3 -30 25 -25 14 3 36 7 49 10 13 3 39 24 58 47 18 24 44 52 57 63
41 33 123 64 172 65 38 0 59 8 108 41 66 44 113 94 121 131 4 16 24 28 80 49
41 15 75 31 75 35 -1 13 -90 32 -152 33 -72 1 -97 -11 -139 -69 -57 -79 -61
-80 -280 -70 -104 5 -203 12 -221 15 -17 4 -48 2 -70 -6 -57 -19 -719 -17
-755 2 -15 8 -43 35 -62 61 -29 38 -47 50 -88 63 -57 17 -243 21 -253 6z m932
-577 c-3 -3 -12 -4 -19 -1 -8 3 -5 6 6 6 11 1 17 -2 13 -5z m73 -74 c13 -8 13
-10 -2 -10 -9 0 -20 5 -23 10 -8 13 5 13 25 0z"/>
<path d="M5001 2983 c-1 -6 -4 -20 -7 -30 -5 -15 -4 -15 5 -3 9 12 11 10 11
-12 0 -16 5 -28 10 -28 6 0 10 6 10 13 -1 17 -28 75 -29 60z"/>
<path d="M7210 2825 c-20 -24 5 -45 52 -45 42 0 59 20 38 45 -16 19 -74 19
-90 0z"/>
<path d="M2913 2823 c9 -2 23 -2 30 0 6 3 -1 5 -18 5 -16 0 -22 -2 -12 -5z"/>
<path d="M6997 2794 c-8 -8 1 -24 14 -24 5 0 9 7 9 15 0 15 -12 20 -23 9z"/>
<path d="M8495 2600 c-45 -18 -85 -83 -85 -138 0 -41 32 -93 71 -114 101 -54
235 19 233 127 -1 50 -40 110 -81 126 -29 11 -110 11 -138 -1z m151 -61 c33
-31 39 -72 17 -116 -21 -44 -53 -63 -104 -63 -50 0 -84 29 -98 85 -16 62 4 99
64 119 45 16 87 7 121 -25z"/>
<path d="M8510 2500 c0 -20 3 -58 6 -84 9 -66 34 -44 34 30 0 30 4 54 10 54 5
0 9 -15 8 -34 -1 -36 24 -86 44 -86 7 0 9 13 5 35 -3 19 -2 49 4 67 5 18 5 35
1 39 -4 4 -31 9 -59 11 l-53 5 0 -37z"/>
<path d="M1995 2249 c-32 -5 -92 -24 -131 -43 -158 -75 -240 -195 -260 -382
-7 -71 12 -161 53 -242 56 -112 212 -218 354 -242 236 -40 477 128 534 373 39
169 -52 373 -213 476 -84 53 -221 78 -337 60z m152 -204 c77 -23 149 -92 169
-163 48 -165 -43 -316 -211 -348 -23 -4 -55 1 -101 16 -115 39 -183 128 -184
241 0 128 69 223 187 255 64 17 80 17 140 -1z"/>
<path d="M6085 2248 c-80 -9 -215 -68 -274 -120 -101 -88 -146 -193 -146 -343
0 -118 17 -176 73 -250 104 -137 320 -224 484 -195 152 27 307 150 362 285
136 332 -132 667 -499 623z m170 -223 c96 -47 149 -134 148 -245 0 -72 -14
-108 -65 -165 -71 -81 -163 -101 -278 -61 -86 30 -126 64 -165 142 -24 47 -27
63 -22 112 17 198 204 304 382 217z"/>
<path d="M7480 2249 c-15 -6 -154 -9 -362 -7 -186 2 -338 0 -338 -3 0 -4 9
-18 20 -32 19 -24 20 -40 20 -423 0 -329 -2 -400 -14 -413 -37 -41 -37 -41
352 -43 l372 -3 0 118 c0 124 -4 134 -46 102 -15 -12 -62 -14 -241 -15 l-223
0 0 81 0 81 168 -4 c92 -2 175 -8 185 -12 16 -8 17 1 17 113 0 114 -1 121 -20
121 -11 0 -20 -7 -20 -15 0 -13 -25 -15 -165 -15 l-165 0 0 79 0 78 170 8
c179 7 262 1 295 -21 37 -27 40 -18 37 111 -2 69 -6 125 -10 124 -4 0 -18 -5
-32 -10z"/>
<path d="M2828 2242 c-111 -2 -138 -5 -138 -17 0 -7 9 -17 20 -20 11 -4 20
-16 21 -28 1 -12 4 -152 8 -312 l6 -290 36 -65 c62 -113 190 -180 343 -180
174 0 297 73 369 220 l32 65 3 287 4 287 24 16 c13 8 24 22 24 30 0 12 -24 13
-152 8 -84 -3 -155 -8 -158 -10 -3 -3 7 -15 23 -27 l27 -22 0 -244 c0 -135 -5
-263 -10 -285 -18 -83 -132 -146 -223 -125 -49 11 -79 31 -114 76 l-28 37 -3
270 -3 270 25 24 c14 13 26 25 26 27 0 9 -34 11 -162 8z"/>
<path d="M4103 2243 l-373 -3 0 -121 0 -121 36 21 c29 18 52 21 135 21 l100 0
-3 -329 -3 -329 -25 -20 c-14 -11 -23 -23 -20 -25 8 -8 300 -13 300 -5 0 4 -6
13 -13 20 -35 35 -37 55 -37 372 l0 316 118 0 c88 0 123 -4 138 -15 10 -8 22
-15 26 -15 4 0 8 54 10 120 2 77 -1 119 -7 118 -5 -2 -178 -4 -382 -5z"/>
<path d="M7700 2232 c0 -7 11 -17 24 -23 32 -15 36 -65 36 -480 0 -321 -1
-337 -20 -362 -11 -14 -20 -28 -20 -31 0 -3 65 -6 145 -6 80 0 145 4 145 8 0
5 -9 17 -19 26 -17 16 -20 34 -23 132 l-3 114 71 0 c67 0 71 -1 83 -27 7 -14
39 -68 73 -120 37 -57 58 -100 56 -111 -5 -17 5 -19 148 -19 l153 -1 -53 66
c-65 81 -156 220 -156 237 0 8 15 23 34 35 41 25 99 109 115 165 15 54 13 151
-3 198 -33 92 -112 164 -211 192 -70 20 -575 26 -575 7z m527 -212 c61 -37 79
-108 43 -168 -28 -45 -53 -52 -191 -52 l-119 0 0 120 0 120 118 0 c98 0 122
-3 149 -20z"/>
<path d="M4640 2225 c0 -8 11 -21 25 -27 l25 -11 0 -398 0 -397 -25 -23 c-13
-13 -25 -28 -25 -33 0 -16 457 0 524 19 128 34 244 133 307 260 107 218 -10
489 -255 587 l-81 33 -247 3 c-220 3 -248 1 -248 -13z m505 -209 c135 -61 187
-202 126 -341 -23 -51 -63 -91 -125 -122 -39 -20 -69 -26 -159 -30 l-110 -6 6
63 c4 35 7 155 7 268 l0 205 103 -7 c73 -5 116 -14 152 -30z"/>
<path d="M3060 1032 c0 -33 88 -214 107 -220 14 -4 113 187 113 217 0 11 -6
21 -12 24 -25 8 -45 -12 -72 -73 -16 -34 -32 -58 -36 -53 -5 4 -17 35 -28 68
-17 51 -24 60 -46 63 -23 3 -26 0 -26 -26z"/>
<path d="M4793 1023 c6 -34 59 -167 80 -200 5 -7 14 -13 21 -13 14 0 93 164
103 213 5 26 3 28 -17 25 -15 -2 -31 -17 -45 -43 -45 -85 -39 -83 -74 -21 -18
31 -42 61 -53 67 -20 11 -21 9 -15 -28z"/>
<path d="M5264 1047 c-2 -7 -3 -60 -2 -118 l3 -104 28 -3 c26 -3 27 -2 27 50
l1 53 49 -52 c27 -29 55 -53 63 -53 10 0 16 18 21 61 11 106 8 156 -10 163
-34 13 -39 7 -36 -49 2 -30 1 -55 -3 -55 -7 0 -20 13 -69 71 -32 37 -65 54
-72 36z"/>
<path d="M7755 1048 c-52 -30 -60 -85 -19 -117 15 -12 35 -21 45 -21 11 0 19
-7 19 -16 0 -13 -8 -15 -50 -9 -46 6 -50 5 -50 -14 0 -23 45 -51 84 -51 13 0
39 12 56 26 25 21 30 33 28 58 -3 26 -11 35 -51 54 -52 25 -54 46 -4 37 18 -3
39 -1 47 4 13 9 12 13 -5 30 -25 26 -74 35 -100 19z"/>
<path d="M2370 1033 c0 -27 13 -42 35 -40 18 2 20 -5 23 -85 l3 -88 29 0 30 0
0 85 0 85 34 0 c40 0 47 8 39 38 -5 21 -11 22 -99 22 -83 0 -94 -2 -94 -17z"/>
<path d="M2614 1037 c-2 -7 -3 -58 -2 -113 3 -93 4 -99 25 -102 17 -2 23 3 28
27 8 39 31 40 53 1 11 -19 25 -30 40 -30 22 0 31 23 12 35 -15 9 -12 47 5 69
24 32 19 81 -11 105 -32 25 -141 31 -150 8z m110 -52 c7 -20 -3 -45 -19 -45
-29 0 -45 13 -45 36 0 20 5 24 29 24 16 0 31 -6 35 -15z"/>
<path d="M2877 953 c-46 -96 -56 -133 -38 -133 21 0 41 13 41 26 0 10 14 14
50 14 39 0 52 -4 60 -20 12 -23 48 -27 56 -6 7 19 -93 216 -109 216 -8 0 -35
-44 -60 -97z m77 -18 c4 -10 -1 -15 -14 -15 -11 0 -20 7 -20 15 0 8 6 15 14
15 8 0 16 -7 20 -15z"/>
<path d="M3335 1042 c-3 -3 -5 -54 -5 -114 l0 -108 73 0 c41 0 76 2 79 5 3 3
3 17 0 30 -4 22 -9 25 -49 25 -55 0 -54 20 0 34 26 7 37 15 37 28 0 14 -8 18
-41 18 -33 0 -40 3 -37 18 2 12 13 17 39 18 44 1 59 10 59 35 0 18 -6 20 -75
18 -41 -1 -77 -4 -80 -7z"/>
<path d="M3550 935 l0 -116 78 3 77 3 0 30 c0 29 -2 30 -47 33 l-48 3 0 80 0
79 -30 0 -30 0 0 -115z"/>
<path d="M4372 1038 c-9 -12 -51 -101 -88 -185 -14 -32 -14 -33 11 -33 14 0
33 9 42 20 25 29 98 28 113 -1 15 -27 56 -23 52 6 -5 28 -57 140 -82 176 -23
32 -33 35 -48 17z m31 -108 c4 -14 0 -20 -13 -20 -13 0 -16 6 -12 25 5 28 17
26 25 -5z"/>
<path d="M4560 955 c0 -49 -3 -100 -6 -112 -6 -22 -4 -23 56 -23 59 0 65 2 95
35 41 43 51 84 32 122 -27 50 -50 64 -116 66 l-61 2 0 -90z m114 13 c20 -29
20 -47 -1 -70 -23 -26 -59 -23 -67 5 -8 30 -8 72 1 80 14 15 53 6 67 -15z"/>
<path d="M5047 1043 c-9 -8 -9 -82 -1 -162 l7 -61 74 0 74 0 -3 28 c-3 25 -7
27 -50 30 -27 2 -48 7 -48 13 0 10 8 14 53 23 18 4 27 13 27 26 0 17 -7 20
-45 20 -68 0 -59 24 13 36 48 8 57 12 60 32 3 21 1 22 -76 22 -43 0 -82 -3
-85 -7z"/>
<path d="M5505 1036 c-14 -42 -10 -51 21 -48 30 3 31 2 38 -44 3 -26 6 -64 6
-85 0 -37 2 -39 30 -39 l30 0 -6 85 -7 85 42 0 c39 0 41 1 41 30 l0 31 -96 -2
c-61 -1 -97 -5 -99 -13z"/>
<path d="M5740 971 c0 -95 11 -125 56 -146 36 -17 68 -10 97 22 18 20 37 109
37 171 0 30 -2 33 -27 30 -27 -3 -28 -5 -31 -73 -3 -73 -13 -95 -43 -95 -26 0
-33 17 -39 95 -5 63 -7 70 -27 73 -22 3 -23 1 -23 -77z"/>
<path d="M5998 1044 c-3 -5 -4 -56 -4 -114 l1 -105 28 -3 c24 -3 27 0 27 27 0
40 22 40 50 1 13 -18 30 -30 44 -30 36 0 38 11 10 41 -25 26 -25 28 -10 57 21
41 20 85 -2 105 -20 19 -136 35 -144 21z m96 -57 c23 -17 11 -47 -20 -47 -29
0 -41 24 -24 45 15 18 21 19 44 2z"/>
<path d="M6221 988 c0 -35 2 -87 6 -115 l5 -53 80 0 c78 0 80 1 74 23 -3 12
-6 25 -6 30 0 4 -22 7 -50 7 -38 0 -50 4 -50 15 0 10 10 15 34 15 35 0 63 21
51 40 -3 5 -24 10 -46 10 -59 0 -52 27 9 36 46 7 62 17 62 42 0 9 -24 12 -85
12 l-85 0 1 -62z"/>
<path d="M6605 1025 c-14 -13 -25 -35 -25 -49 0 -29 42 -66 76 -66 15 0 24 -6
24 -16 0 -16 -19 -17 -70 -3 -10 3 -16 -5 -18 -22 -3 -29 28 -49 79 -49 22 0
34 8 49 33 11 17 20 44 20 59 0 24 -6 29 -47 41 -28 8 -48 20 -48 28 0 10 12
13 48 11 42 -3 47 -1 47 18 0 43 -96 55 -135 15z"/>
<path d="M6798 944 c4 -106 10 -123 39 -124 8 0 11 10 7 30 -5 25 -3 30 17 34
13 3 36 7 51 11 38 7 62 46 53 85 -9 40 -37 57 -110 65 l-61 7 4 -108z m96 50
c35 -13 12 -54 -30 -54 -17 0 -19 46 -1 53 6 3 13 6 14 6 1 1 8 -2 17 -5z"/>
<path d="M7045 1017 c-45 -45 -53 -79 -29 -124 44 -83 105 -96 164 -34 21 21
40 52 43 67 12 61 -46 124 -113 124 -23 0 -41 -9 -65 -33z m119 -59 c21 -61
-61 -109 -98 -56 -21 30 -20 44 5 69 30 30 81 23 93 -13z"/>
<path d="M7280 936 c0 -109 1 -116 20 -116 13 0 22 10 28 32 11 44 27 45 54 4
24 -36 56 -52 72 -36 5 5 0 21 -13 38 -26 37 -26 40 -1 67 17 18 18 26 9 58
-12 45 -26 53 -106 62 l-63 7 0 -116z m110 39 c17 -20 4 -35 -30 -35 -32 0
-43 11 -34 34 8 20 48 21 64 1z"/>
<path d="M7500 1014 c0 -28 3 -31 25 -27 24 5 24 4 27 -78 3 -83 3 -84 31 -87
l27 -3 0 85 0 86 31 0 c27 0 30 3 27 28 l-3 27 -82 0 -83 0 0 -31z"/>
<path d="M3972 1024 c-16 -11 -22 -25 -22 -50 0 -20 -9 -47 -19 -61 -24 -30
-19 -46 22 -70 23 -14 46 -18 80 -15 40 3 47 7 47 26 0 40 -12 66 -31 66 -25
0 -31 14 -14 36 27 36 13 84 -25 84 -8 0 -26 -7 -38 -16z m38 -22 c0 -13 -12
-22 -22 -16 -10 6 -1 24 13 24 5 0 9 -4 9 -8z m-10 -137 c0 -14 -4 -25 -9 -25
-12 0 -23 29 -15 41 10 18 24 9 24 -16z"/>
<path d="M1800 950 l0 -30 195 0 195 0 0 30 0 30 -195 0 -195 0 0 -30z"/>
<path d="M8039 978 c-1 -2 -3 -15 -5 -30 l-3 -28 185 0 184 0 0 30 0 30 -180
0 c-99 0 -181 -1 -181 -2z"/>
</g>
</svg>
